# xmcd
#
# Track frame offsets:
# 150
# 16597
# 30247
# 42292
# 64967
# 74075
# 85657
# 109887
# 127032
# 145275
# 155045
# 173677
# 188132
# 202115
# 218217
# 229467
# 246715
# 263445
# 278402
# 294750
#
# Disc length: 4175 seconds
#
#
# Revision: 0
# Processed by: cddbd v1.5.1PL0 Copyright (c) Steve Scherf et al.
# Submitted via: FreeRIP 2.92 
#
DISCID=28104d14
DTITLE=Tecwyn Ifan - Goreuon
DYEAR=1995
DGENRE=Country
TTITLE0=Y Dref Wen
TTITLE1=Angel
TTITLE2=Cerdded Ymlaen
TTITLE3=Dy Gan
TTITLE4=Y Navaho
TTITLE5=Gwaed ar yr Eira Gwyn
TTITLE6=Wedi Blino
TTITLE7=Wyt Ti'n Cofio
TTITLE8=Rwy'n Dy Weld
TTITLE9=Bytholwyrdd
TTITLE10=Edrych I'r Gorwel
TTITLE11=Ofergoeli
TTITLE12=Can yr Eos
TTITLE13=Gweddi Sant Ffransis
TTITLE14=Paid Rhoi Fyny
TTITLE15=Y Ffordd Ymlaen
TTITLE16=Nefoedd Fach I Mi
TTITLE17=Fe'th Garaf Di
TTITLE18=Stesion Strata
TTITLE19=Ysbryd Rebeca
EXTD=
EXTT0=
EXTT1=
EXTT2=
EXTT3=
EXTT4=
EXTT5=
EXTT6=
EXTT7=
EXTT8=
EXTT9=
EXTT10=
EXTT11=
EXTT12=
EXTT13=
EXTT14=
EXTT15=
EXTT16=
EXTT17=
EXTT18=
EXTT19=
PLAYORDER=
